CD_DA


// Track 1
TRACK AUDIO
NO COPY
NO PRE_EMPHASIS
TWO_CHANNEL_AUDIO
ISRC "GBDCA0200189"
FILE "data.wav" 0 06:39:45


// Track 2
TRACK AUDIO
NO COPY
NO PRE_EMPHASIS
TWO_CHANNEL_AUDIO
ISRC "GBDCA0300251"
FILE "data.wav" 06:39:45 04:42:21
START 00:04:19


// Track 3
TRACK AUDIO
NO COPY
NO PRE_EMPHASIS
TWO_CHANNEL_AUDIO
ISRC "GBDCA0300252"
FILE "data.wav" 11:21:66 02:47:63


// Track 4
TRACK AUDIO
NO COPY
NO PRE_EMPHASIS
TWO_CHANNEL_AUDIO
ISRC "GBDCA0300253"
FILE "data.wav" 14:09:54 04:22:33

